<?xml version="1.0" encoding="iso-8859-1"?>
<!-- Generator: Adobe Illustrator 19.0.0, SVG Export Plug-In . SVG Version: 6.00 Build 0)  -->
<svg version="1.1" id="Capa_1" xmlns="http://www.w3.org/2000/svg" xmlns:xlink="http://www.w3.org/1999/xlink" x="0px" y="0px"
	 viewBox="0 0 496.125 496.125" style="enable-background:new 0 0 496.125 496.125;" xml:space="preserve">
<polyline style="fill:#6B5936;" points="128.062,124.125 184.062,144.125 240.062,144.125 240.062,176.125 176.062,176.125 
	144.062,168.125 "/>
<path d="M240.062,184.125h-64c-0.8,0-1.6,0-1.6,0l-32-8l4-15.2l31.2,8h54.4v-16h-48c-0.8,0-1.6,0-2.4-0.8l-56-20l5.6-15.2l54.4,19.2
	h54.4c4.8,0,8,3.2,8,8v32C248.062,180.925,244.862,184.125,240.062,184.125z"/>
<path style="fill:#6B5936;" d="M128.062,240.125l-16,168h-32v-144l0,0c-8.8,0-16-7.2-16-16v-16h16v-144h32v24l9.6,7.2
	c14.4,10.4,22.4,27.2,22.4,44.8v44l64,56v88h-32v-56l-50.4-33.6"/>
<path d="M112.062,416.125h-32c-4.8,0-8-3.2-8-8v-137.6c-9.6-3.2-16-12.8-16-22.4v-16c0-4.8,3.2-8,8-8h8v-136c0-4.8,3.2-8,8-8h32
	c4.8,0,8,3.2,8,8v20l6.4,4.8c16,12,25.6,31.2,25.6,51.2v40l61.6,53.6c1.6,1.6,2.4,4,2.4,6.4v88c0,4.8-3.2,8-8,8h-32
	c-4.8,0-8-3.2-8-8v-52l-35.2-24l-12.8,132.8C119.262,412.925,116.062,416.125,112.062,416.125z M88.062,400.125h16.8l15.2-160.8
	l16,1.6l-1.6,17.6l46.4,30.4c2.4,1.6,3.2,4,3.2,6.4v48h16v-76l-61.6-53.6c-1.6-0.8-2.4-3.2-2.4-5.6v-44c0-15.2-7.2-29.6-19.2-38.4
	l-9.6-7.2c-2.4-1.6-3.2-4-3.2-6.4v-16h-16v136c0,4.8-3.2,8-8,8h-8v8c0,4.8,3.2,8,8,8s8,3.2,8,8V400.125z"/>
<path style="fill:#BF7D2C;" d="M464.062,72.125c13.6,0,24-10.4,24-24s-10.4-24-24-24s-24,10.4-24,24"/>
<path d="M464.062,80.125v-16c8.8,0,16-7.2,16-16s-7.2-16-16-16s-16,7.2-16,16h-16c0-17.6,14.4-32,32-32s32,14.4,32,32
	S481.662,80.125,464.062,80.125z"/>
<polygon style="fill:#406928;" points="8.062,488.125 56.062,440.125 120.062,440.125 176.062,384.125 352.062,384.125 
	400.062,336.125 488.062,336.125 488.062,488.125 "/>
<path d="M488.062,496.125h-480c-4.8,0-8-3.2-8-8c0-2.4,0.8-4,2.4-5.6l48-48c1.6-1.6,3.2-2.4,5.6-2.4h60.8l53.6-53.6
	c1.6-1.6,3.2-2.4,5.6-2.4h172.8l45.6-45.6c1.6-1.6,3.2-2.4,5.6-2.4h88c4.8,0,8,3.2,8,8v152
	C496.062,492.925,492.862,496.125,488.062,496.125z M27.262,480.125h452.8v-136h-76.8l-45.6,45.6c-1.6,1.6-3.2,2.4-5.6,2.4h-172.8
	l-53.6,53.6c-1.6,1.6-3.2,2.4-5.6,2.4h-60.8L27.262,480.125z"/>
<path d="M253.662,461.725l-11.2-11.2l24-24c1.6-1.6,3.2-2.4,5.6-2.4h60.8l13.6-13.6l11.2,11.2l-16,16c-1.6,1.6-3.2,2.4-5.6,2.4
	h-60.8L253.662,461.725z"/>
<path style="fill:#C7B299;" d="M96.062,8.125L96.062,8.125c17.6,0,32,14.4,32,32v48l0,0h-32c-17.6,0-32-14.4-32-32v-16
	C64.062,22.525,78.462,8.125,96.062,8.125z"/>
<path d="M128.062,96.125h-32c-22.4,0-40-17.6-40-40v-16c0-22.4,17.6-40,40-40s40,17.6,40,40v48
	C136.062,92.925,132.862,96.125,128.062,96.125z M96.062,16.125c-13.6,0-24,10.4-24,24v16c0,13.6,10.4,24,24,24h24v-40
	C120.062,26.525,109.662,16.125,96.062,16.125z"/>
<rect x="64.062" y="32.125" width="104" height="16"/>
<polyline style="fill:#4F4228;" points="80.062,112.125 8.062,112.125 8.062,232.125 80.062,232.125 80.062,112.125 "/>
<path d="M80.062,240.125h-72c-4.8,0-8-3.2-8-8v-120c0-4.8,3.2-8,8-8h72c4.8,0,8,3.2,8,8v120
	C88.062,236.925,84.862,240.125,80.062,240.125z M16.062,224.125h56v-104h-56V224.125z"/>
<polygon style="fill:#4F4228;" points="112.062,408.125 136.062,424.125 120.062,440.125 80.062,440.125 80.062,408.125 "/>
<path d="M120.062,448.125h-40c-4.8,0-8-3.2-8-8v-32c0-4.8,3.2-8,8-8h32c1.6,0,3.2,0.8,4.8,1.6l24,16c4,2.4,4.8,7.2,2.4,11.2
	c0,0.8-0.8,0.8-0.8,1.6l-16,16C124.062,447.325,122.462,448.125,120.062,448.125z M88.062,432.125h28.8l6.4-6.4l-13.6-9.6h-21.6
	V432.125z"/>
<polygon style="fill:#4F4228;" points="240.062,384.125 240.062,368.125 208.062,352.125 176.062,352.125 176.062,384.125 "/>
<path d="M240.062,392.125h-64c-4.8,0-8-3.2-8-8v-32c0-4.8,3.2-8,8-8h32c1.6,0,2.4,0,3.2,0.8l32,16c2.4,1.6,4.8,4,4.8,7.2v16
	C248.062,388.925,244.862,392.125,240.062,392.125z M184.062,376.125h48v-3.2l-25.6-12.8h-22.4V376.125z"/>
<rect x="80.062" y="368.125" width="40" height="16"/>
<rect x="176.062" y="312.125" width="32" height="16"/>
<path d="M120.062,224.125h-16v-72h-72v-16h80c4.8,0,8,3.2,8,8V224.125z"/>
<rect x="8.062" y="192.125" width="64" height="16"/>
<path style="fill:#4F4228;" d="M256.062,136.125L256.062,136.125c8.8,0,16,7.2,16,16v16c0,8.8-7.2,16-16,16l0,0c-8.8,0-16-7.2-16-16
	v-16C240.062,143.325,247.262,136.125,256.062,136.125z"/>
<path d="M256.062,192.125c-13.6,0-24-10.4-24-24v-16c0-13.6,10.4-24,24-24s24,10.4,24,24v16
	C280.062,181.725,269.662,192.125,256.062,192.125z M256.062,144.125c-4.8,0-8,3.2-8,8v16c0,4.8,3.2,8,8,8s8-3.2,8-8v-16
	C264.062,147.325,260.862,144.125,256.062,144.125z"/>
<path style="fill:#7D828C;" d="M456.062,88.125c8.8,0,16-7.2,16-16s-7.2-16-16-16c-3.2,0-6.4,0.8-8.8,2.4
	c-2.4-10.4-12-18.4-23.2-18.4c0-17.6-14.4-32-32-32s-32,14.4-32,32c0,0.8,0,0.8,0,1.6c-2.4-0.8-5.6-1.6-8-1.6c-13.6,0-24,10.4-24,24
	s10.4,24,24,24H456.062z"/>
<path d="M456.062,96.125h-104c-17.6,0-32-14.4-32-32s14.4-32,32-32c4-21.6,25.6-36,47.2-31.2c16,3.2,28.8,16,31.2,32
	c8.8,2.4,16,8,20.8,15.2c12.8-2.4,25.6,6.4,27.2,20c2.4,12.8-6.4,25.6-20,27.2C458.462,96.125,457.662,96.125,456.062,96.125z
	 M352.062,48.125c-8.8,0-16,7.2-16,16s7.2,16,16,16h104c4.8,0,8-3.2,8-8s-3.2-8-8-8c-1.6,0-3.2,0.8-4.8,1.6c-4,2.4-8.8,1.6-11.2-2.4
	c0-0.8,0-1.6-0.8-3.2c-1.6-7.2-8-12-15.2-12c-4.8,0-8-3.2-8-8c0-13.6-10.4-24-24-24s-24,10.4-24,24v0.8c0,4.8-3.2,8-8,8
	c-0.8,0-2.4,0-3.2-0.8C356.062,48.125,353.662,48.125,352.062,48.125z"/>
<path d="M482.462,301.725l-90.4-90.4l-90.4,90.4l-11.2-11.2l96-96c3.2-3.2,8-3.2,11.2,0l96,96L482.462,301.725z"/>
<polygon style="fill:#589137;" points="456.062,264.125 432.062,288.125 400.062,256.125 384.062,272.125 352.062,240.125 
	392.062,200.125 "/>
<path d="M432.062,296.125c-2.4,0-4-0.8-5.6-2.4l-26.4-26.4l-10.4,10.4c-3.2,3.2-8,3.2-11.2,0l-32-32c-3.2-3.2-3.2-8,0-11.2l40-40
	c3.2-3.2,8-3.2,11.2,0l64,64c3.2,3.2,3.2,8,0,11.2l-24,24C436.062,295.325,434.462,296.125,432.062,296.125z M400.062,248.125
	c2.4,0,4,0.8,5.6,2.4l26.4,26.4l12.8-12.8l-52.8-52.8l-28.8,28.8l20.8,20.8l10.4-10.4
	C396.062,248.925,397.662,248.125,400.062,248.125z"/>
<rect x="260.072" y="183.286" transform="matrix(-0.9905 0.1376 -0.1376 -0.9905 571.0338 504.7002)" width="16" height="177.602"/>
<rect x="236.919" y="72.071" transform="matrix(-0.9905 0.1376 -0.1376 -0.9905 501.8837 174.2495)" width="16" height="64.801"/>
<g>
</g>
<g>
</g>
<g>
</g>
<g>
</g>
<g>
</g>
<g>
</g>
<g>
</g>
<g>
</g>
<g>
</g>
<g>
</g>
<g>
</g>
<g>
</g>
<g>
</g>
<g>
</g>
<g>
</g>
</svg>
