<svg height="512" viewBox="0 0 512 512" width="512" xmlns="http://www.w3.org/2000/svg"><g id="flat"><path d="m216 120 40 8v-16h24v-24h8l-8-32h-64z" fill="#f6bb92"/><path d="m256 56-16 26h-24v-26z" fill="#683b0d"/><path d="m184 264v80h56v-32z" fill="#0a6fa2"/><path d="m184 256a32 32 0 0 1 -32-32v-48l62.926-8.892s-17.394 88.892-17.394 90.23-13.532-1.338-13.532-1.338z" fill="#029532"/><path d="m270 196 50 20 72-8h24l8-24-24-16-16 8-56 8-48-32z" fill="#f6bb92"/><path d="m168 181.333 32-5.333-5.616 22.462a190.654 190.654 0 0 0 -3.774 19.271l-6.61 46.267h8a120 120 0 0 0 72-24v-16l16-32v-40l-24-24-39.258-8h-19.46a20.008 20.008 0 0 0 -8.635 1.96l-36.647 17.54z" fill="#e82f3e"/><path d="m236.54 166.82a43.685 43.685 0 0 1 -28.52 30.94l-12.02 4.64a7.831 7.831 0 0 1 -2.67.53q.495-2.235 1.05-4.47l3.49-13.93 4.55-1.76c.12-.05.24-.09.36-.13a27.9 27.9 0 0 0 16.13-38.94l-10.07-20.12a8.032 8.032 0 0 1 -.84-3.58h8.74l9.14 1.86 7.34 14.68a43.947 43.947 0 0 1 3.32 30.28z" fill="#e82f3e"/><path d="m152 139.5-23.073 14.78a30 30 0 0 0 -12.279 15.775l-20.648 61.945-16 8v16l24 8 24-16 24-64 16-2.667z" fill="#f6bb92"/><path d="m280 312h32l-1.455 2.911a100 100 0 0 0 -9.2 61.169l3.993 23.92h32l18.741-99.235a40 40 0 0 0 -11.021-35.707l-.53-.53a41.409 41.409 0 0 0 -20.3-11.144l-24.228-5.384z" fill="#f6bb92"/><path d="m300 248-36-8a120 120 0 0 1 -72 24h-8v13.578a34.423 34.423 0 0 0 15.328 28.641 34.428 34.428 0 0 0 19.094 5.781h61.578z" fill="#0296e5"/><path d="m337.338 400 25.931 16.1a20 20 0 0 1 8.723 22.342l-2.654 9.558-62.119-6.776a10 10 0 0 1 -8.653-12.215l6.772-29.009z" fill="#fd7422"/><path d="m184 344v24l-1.6.535a100 100 0 0 0 -39.088 24.158l-15.312 15.307 16 32 79.74-43.495a30 30 0 0 0 12.468-12.92l.625-1.251a30 30 0 0 0 3.167-13.416v-24.918z" fill="#f6bb92"/><path d="m128 408-24.825 12.413a10 10 0 0 0 -5.229 11.369l14.054 56.218h12a20 20 0 0 0 20-20v-28z" fill="#fd7422"/><path d="m236.54 166.82a43.685 43.685 0 0 1 -28.52 30.94l-12.02 4.64a7.831 7.831 0 0 1 -2.67.53q.495-2.235 1.05-4.47l3.49-13.93 4.55-1.76c.12-.05.24-.09.36-.13a27.9 27.9 0 0 0 16.13-38.94l-10.07-20.12a8.032 8.032 0 0 1 -.84-3.58h8.74l9.14 1.86 7.34 14.68a43.947 43.947 0 0 1 3.32 30.28z" fill="#027e2a"/><path d="m375.115 217.876a8 8 0 0 1 -7.909-6.87l-4.84-33.875a8 8 0 0 1 15.839-2.262l4.839 33.875a8 8 0 0 1 -6.788 9.05 7.88 7.88 0 0 1 -1.141.082z" fill="#cbcbcb"/><path d="m208 24h80a0 0 0 0 1 0 0 32 32 0 0 1 -32 32h-16a32 32 0 0 1 -32-32 0 0 0 0 1 0 0z" fill="#0296e5" transform="matrix(-1 0 0 -1 496 80)"/><path d="m292.687 64h-76.687a8 8 0 0 1 0-16h76.687a19.187 19.187 0 0 0 13.656-5.657 8 8 0 0 1 11.314 11.314 35.082 35.082 0 0 1 -24.97 10.343z" fill="#0276b4"/></g></svg>